# xmcd CD database file
#
# Track frame offsets:
#	150
#	27310
#	59676
#	83054
#	127433
#	156541
#	171627
#	211442
#	257698
#	287661
#	303367
#
# Disc length: 4557 seconds
#
# Revision: 0
# Processed by: cddbd v1.5.2PL0 Copyright (c) Steve Scherf et al.
# Submitted via: CDex 1.70beta2
#
DISCID=ad11cb0b
DTITLE=アレクサンドル・クニャーゼフ、ドミトリー・マフチン、ボリス・ベレゾフスキー - メンデルスゾーン：ピアノ三重奏曲第１＆２番他
DYEAR=1900
DGENRE=室内楽曲
TTITLE0=ヴァイオリン・ソナタ ヘ長調(1838)[メニューイン編曲]　第１楽章 Allegro vivace
TTITLE1=ヴァイオリン・ソナタ ヘ長調(1838)[メニューイン編曲]　第２楽章 Adagio
TTITLE2=ヴァイオリン・ソナタ ヘ長調(1838)[メニューイン編曲]　第３楽章 Assai vivace
TTITLE3=ピアノ三重奏曲 第１番ニ短調 作品４９ 第１楽章 Molto allegro ed agitato
TTITLE4=ピアノ三重奏曲 第１番ニ短調 作品４９ 第２楽章 Andante con moto tranquillo
TTITLE5=ピアノ三重奏曲 第１番ニ短調 作品４９ 第３楽章 スケルツォ:Leggiero e vivace
TTITLE6=ピアノ三重奏曲 第１番ニ短調 作品４９ 第４楽章 フィナーレ:Allegro assai appassionato
TTITLE7=ピアノ三重奏曲 第２番ハ短調 作品６６ 第１楽章 Allegro energico e con fuoco
TTITLE8=ピアノ三重奏曲 第２番ハ短調 作品６６ 第２楽章 Andante esprressivo
TTITLE9=ピアノ三重奏曲 第２番ハ短調 作品６６ 第３楽章 スケルツォ:Molto allegro quasi presto
TTITLE10=ピアノ三重奏曲 第２番ハ短調 作品６６ 第４楽章 フィナーレ:Allegro appassionato
EXTD=
EXTT0=
EXTT1=
EXTT2=
EXTT3=
EXTT4=
EXTT5=
EXTT6=
EXTT7=
EXTT8=
EXTT9=
EXTT10=
PLAYORDER=
